<mxfile host="app.diagrams.net" modified="2024-08-29T02:50:17.414Z" agent="Mozilla/5.0 (Windows NT 10.0; Win64; x64) AppleWebKit/537.36 (KHTML, like Gecko) Chrome/125.0.0.0 Safari/537.36" etag="S7pOhfSx_UEFv3nFA5Hv" version="24.2.5" type="github">
  <diagram id="C5RBs43oDa-KdzZeNtuy" name="Page-1">
    <mxGraphModel dx="1562" dy="818" grid="1" gridSize="10" guides="1" tooltips="1" connect="1" arrows="1" fold="1" page="1" pageScale="1" pageWidth="827" pageHeight="1169" math="0" shadow="0">
      <root>
        <mxCell id="WIyWlLk6GJQsqaUBKTNV-0" />
        <mxCell id="WIyWlLk6GJQsqaUBKTNV-1" parent="WIyWlLk6GJQsqaUBKTNV-0" />
        <mxCell id="S9qsuHPM49avT5yX1lFh-6" value="Consul Server" style="whiteSpace=wrap;html=1;aspect=fixed;" vertex="1" parent="WIyWlLk6GJQsqaUBKTNV-1">
          <mxGeometry x="88" y="110" width="80" height="80" as="geometry" />
        </mxCell>
        <mxCell id="S9qsuHPM49avT5yX1lFh-7" value="Consul Client" style="whiteSpace=wrap;html=1;aspect=fixed;" vertex="1" parent="WIyWlLk6GJQsqaUBKTNV-1">
          <mxGeometry x="88" y="290" width="80" height="80" as="geometry" />
        </mxCell>
        <mxCell id="S9qsuHPM49avT5yX1lFh-9" value="" style="shape=flexArrow;endArrow=classic;startArrow=classic;html=1;rounded=0;entryX=0.5;entryY=1;entryDx=0;entryDy=0;exitX=0.5;exitY=0;exitDx=0;exitDy=0;" edge="1" parent="WIyWlLk6GJQsqaUBKTNV-1" source="S9qsuHPM49avT5yX1lFh-7" target="S9qsuHPM49avT5yX1lFh-6">
          <mxGeometry width="100" height="100" relative="1" as="geometry">
            <mxPoint x="118" y="290" as="sourcePoint" />
            <mxPoint x="218" y="190" as="targetPoint" />
          </mxGeometry>
        </mxCell>
        <mxCell id="S9qsuHPM49avT5yX1lFh-11" value="Service" style="ellipse;whiteSpace=wrap;html=1;aspect=fixed;" vertex="1" parent="WIyWlLk6GJQsqaUBKTNV-1">
          <mxGeometry x="88" y="440" width="80" height="80" as="geometry" />
        </mxCell>
        <mxCell id="S9qsuHPM49avT5yX1lFh-12" value="" style="endArrow=classic;html=1;rounded=0;entryX=0.5;entryY=1;entryDx=0;entryDy=0;exitX=0.5;exitY=0;exitDx=0;exitDy=0;" edge="1" parent="WIyWlLk6GJQsqaUBKTNV-1" source="S9qsuHPM49avT5yX1lFh-11" target="S9qsuHPM49avT5yX1lFh-7">
          <mxGeometry width="50" height="50" relative="1" as="geometry">
            <mxPoint x="388" y="420" as="sourcePoint" />
            <mxPoint x="438" y="370" as="targetPoint" />
          </mxGeometry>
        </mxCell>
        <mxCell id="S9qsuHPM49avT5yX1lFh-14" value="Nacos Server" style="whiteSpace=wrap;html=1;aspect=fixed;" vertex="1" parent="WIyWlLk6GJQsqaUBKTNV-1">
          <mxGeometry x="300" y="290" width="80" height="80" as="geometry" />
        </mxCell>
        <mxCell id="S9qsuHPM49avT5yX1lFh-16" value="Service" style="ellipse;whiteSpace=wrap;html=1;aspect=fixed;" vertex="1" parent="WIyWlLk6GJQsqaUBKTNV-1">
          <mxGeometry x="300" y="440" width="80" height="80" as="geometry" />
        </mxCell>
        <mxCell id="S9qsuHPM49avT5yX1lFh-17" value="" style="endArrow=classic;html=1;rounded=0;entryX=0.5;entryY=1;entryDx=0;entryDy=0;exitX=0.5;exitY=0;exitDx=0;exitDy=0;" edge="1" parent="WIyWlLk6GJQsqaUBKTNV-1" source="S9qsuHPM49avT5yX1lFh-16" target="S9qsuHPM49avT5yX1lFh-14">
          <mxGeometry width="50" height="50" relative="1" as="geometry">
            <mxPoint x="600" y="440" as="sourcePoint" />
            <mxPoint x="650" y="390" as="targetPoint" />
          </mxGeometry>
        </mxCell>
      </root>
    </mxGraphModel>
  </diagram>
</mxfile>
